:FULLY-SPECIFIED
:FORCE-ALL-JOINTS-BE-3DOF
:DEGREES
340
root 9.38428 16.6417 12.01 6.05157 10.8059 -0.607058
lfemur 9.3757 7.10387 -11.7879
ltibia 37.859 -0 0
lfoot 10.2588 0.56803 0.0231695
ltoes -11.5111 0 0
rfemur -35.0446 1.66052 23.0417
rtibia 40.9447 -0 0
rfoot -11.5736 1.4355 -0.00143763
rtoes -13.4753 0 0
lowerback -6.67138 -4.45711 -2.82366
upperback -1.45346 -5.82964 3.18645
thorax 2.84151 -2.94442 4.3258
lowerneck -20.0767 -5.34481 -12.9279
upperneck 21.0696 -6.94578 13.7384
head 11.1132 -2.61924 6.14435
lclavicle 9.89886e-15 -4.77085e-15 0
lhumerus -28.8308 -23.4043 101.316
lradius 26.4326 -0 0
lwrist 3.73136 0 0
lhand -10.6852 -23.7616 0.00524713
lfingers 7.12502 0 0
lthumb 15.3237 5.65039 0.00499048
rclavicle 9.89886e-15 -4.77085e-15 0
rhumerus -46.3173 4.85312 -81.3483
rradius 30.5561 -0 0
rwrist -15.1477 0 0
rhand -27.9701 -24.4852 -0.0104291
rfingers 7.12502 0 0
rthumb -1.35701 -54.4599 -0.0100901
341
root 9.36913 16.6751 12.1566 6.05184 10.7572 -0.782397
lfemur 7.64789 7.01036 -11.7444
ltibia 40.804 -0 0
lfoot 10.4885 1.85301 0.0205943
ltoes -11.8039 0 0
rfemur -34.2751 1.83499 23.3885
rtibia 40.5792 -0 0
rfoot -11.9993 1.4785 -0.00127789
rtoes -13.2396 0 0
lowerback -6.56074 -4.34145 -2.68582
upperback -1.4381 -5.68717 3.2015
thorax 2.76962 -2.87145 4.288
lowerneck -20.1206 -5.43747 -13.0707
upperneck 20.9714 -7.07117 13.9448
head 11.121 -2.66326 6.22466
lclavicle 1.2335e-14 5.30067e-16 0
lhumerus -28.8938 -22.4204 101.009
lradius 25.3881 -0 0
lwrist 3.51536 0 0
lhand -10.5781 -23.1377 0.00466407
lfingers 7.12502 0 0
lthumb 15.4268 6.26645 0.00443594
rclavicle 1.2335e-14 5.30067e-16 0
rhumerus -45.9557 4.86195 -81.3582
rradius 30.9302 -0 0
rwrist -15.8649 0 0
rhand -28.1655 -23.8058 -0.00927022
rfingers 7.12502 0 0
rthumb -1.54578 -53.7793 -0.00896883
342
root 9.35399 16.7085 12.3031 6.05226 10.7085 -0.957707
lfemur 5.92034 6.91819 -11.698
ltibia 43.7491 -0 0
lfoot 10.718 3.13798 0.0128697
ltoes -12.0966 0 0
rfemur -33.5044 2.00479 23.7376
rtibia 40.2137 -0 0
rfoot -12.4251 1.52149 -0.000798668
rtoes -13.0038 0 0
lowerback -6.44984 -4.22604 -2.54778
upperback -1.42271 -5.54471 3.21658
thorax 2.6977 -2.79852 4.25012
lowerneck -20.1643 -5.53024 -13.2134
upperneck 20.8727 -7.1962 14.1515
head 11.1287 -2.70729 6.30496
lclavicle 1.47712e-14 5.83098e-15 0
lhumerus -28.962 -21.4369 100.702
lradius 24.3435 -0 0
lwrist 3.29935 0 0
lhand -10.471 -22.5137 0.00291496
lfingers 7.12502 0 0
lthumb 15.53 6.88249 0.00277238
rclavicle 1.47712e-14 5.83098e-15 0
rhumerus -45.5941 4.87083 -81.368
rradius 31.3043 -0 0
rwrist -16.5821 0 0
rhand -28.3609 -23.1263 -0.00579366
rfingers 7.12502 0 0
rthumb -1.73451 -53.0986 -0.00560531
343
root 9.33885 16.742 12.4496 6.05283 10.6598 -1.13299
lfemur 4.19306 6.82746 -11.6488
ltibia 46.6941 0 0
lfoot 10.9473 4.4229 0
ltoes -12.3893 0 0
rfemur -32.7326 2.16987 24.089
rtibia 39.8481 0 0
rfoot -12.8508 1.56448 0
rtoes -12.7681 0 0
lowerback -6.33867 -4.11091 -2.40954
upperback -1.40728 -5.40225 3.23169
thorax 2.62573 -2.72565 4.21215
lowerneck -20.2078 -5.62312 -13.3561
upperneck 20.7735 -7.32088 14.3584
head 11.1364 -2.75134 6.38526
lclavicle 1.72073e-14 1.11319e-14 0
lhumerus -29.0354 -20.4537 100.396
lradius 23.299 0 0
lwrist 3.08335 0 0
lhand -10.364 -21.8898 0
lfingers 7.12502 0 0
lthumb 15.6331 7.49854 0
rclavicle 1.72073e-14 1.11319e-14 0
rhumerus -45.2325 4.87978 -81.3777
rradius 31.6784 0 0
rwrist -17.2993 0 0
rhand -28.5563 -22.4469 0
rfingers 7.12502 0 0
rthumb -1.9232 -52.418 0
344
root 9.32969 16.7735 12.5843 6.09988 10.531 -1.20803
lfemur 2.52774 6.95512 -11.7805
ltibia 48.6032 -0 0
lfoot 9.80804 5.48816 -0.0530356
ltoes -11.2966 0 0
rfemur -31.9686 2.32606 24.3159
rtibia 39.2526 -0 0
rfoot -12.8716 1.53063 3.07921e-05
rtoes -11.5228 0 0
lowerback -6.27855 -3.96871 -2.33548
upperback -1.43123 -5.21704 3.21571
thorax 2.54301 -2.63088 4.1764
lowerneck -20.0967 -5.66476 -13.3941
upperneck 20.6858 -7.37669 14.376
head 11.0946 -2.78209 6.38565
lclavicle 1.80231e-14 1.14632e-14 0
lhumerus -29.5851 -20.3255 100.276
lradius 23.1462 -0 0
lwrist 3.06791 0 0
lhand -10.2012 -21.3451 0.00387018
lfingers 7.12502 0 0
lthumb 15.7899 8.03051 0.00363976
rclavicle 1.80231e-14 1.14632e-14 0
rhumerus -45.057 5.56759 -81.7825
rradius 32.3891 -0 0
rwrist -18.1044 0 0
rhand -28.7715 -23.6239 0.0110631
rfingers 7.12502 0 0
rthumb -2.13105 -53.5926 0.0106621
345
root 9.32054 16.805 12.719 6.14709 10.4022 -1.28314
lfemur 0.861673 7.07893 -11.916
ltibia 50.5123 -0 0
lfoot 8.668 6.55427 -0.0848727
ltoes -10.2038 0 0
rfemur -31.2038 2.47922 24.5448
rtibia 38.6572 -0 0
rfoot -12.8925 1.49679 4.92674e-05
rtoes -10.2776 0 0
lowerback -6.21826 -3.82658 -2.26127
upperback -1.45523 -5.03184 3.19966
thorax 2.46024 -2.53615 4.14051
lowerneck -19.9855 -5.70633 -13.4322
upperneck 20.598 -7.43248 14.3938
head 11.0528 -2.81283 6.38606
lclavicle 1.8839e-14 1.17945e-14 0
lhumerus -30.1346 -20.1983 100.154
lradius 22.9934 -0 0
lwrist 3.05246 0 0
lhand -10.0383 -20.8005 0.00619245
lfingers 7.12502 0 0
lthumb 15.9467 8.56249 0.00582376
rclavicle 1.8839e-14 1.17945e-14 0
rhumerus -44.8862 6.25662 -82.1856
rradius 33.0998 -0 0
rwrist -18.9094 0 0
rhand -28.9869 -24.801 0.0177029
rfingers 7.12502 0 0
rthumb -2.33908 -54.7671 0.0170612
